<?xml version="1.0" standalone="no"?>
<!DOCTYPE svg PUBLIC "-//W3C//DTD SVG 20010904//EN"
 "http://www.w3.org/TR/2001/REC-SVG-20010904/DTD/svg10.dtd">
<svg version="1.0" xmlns="http://www.w3.org/2000/svg"
 width="510.000000pt" height="510.000000pt" viewBox="0 0 510.000000 510.000000"
 preserveAspectRatio="xMidYMid meet">

<g transform="translate(0.000000,510.000000) scale(0.100000,-0.100000)"
fill="#000000" stroke="none">
<path d="M1900 3850 c-25 -27 -51 -49 -58 -49 -15 -1 -162 -147 -162 -161 0
-6 -22 -33 -50 -60 -27 -27 -50 -56 -50 -64 0 -9 -4 -16 -10 -16 -5 0 -10 -8
-10 -18 0 -10 -9 -24 -20 -32 -11 -8 -20 -21 -20 -30 0 -9 -9 -22 -20 -30 -11
-8 -20 -21 -20 -28 0 -8 -13 -27 -30 -42 -16 -15 -30 -35 -30 -44 0 -9 -4 -16
-10 -16 -5 0 -10 -9 -10 -20 0 -11 -4 -20 -10 -20 -15 0 -12 -70 4 -86 29 -28
86 -8 86 30 0 9 5 16 10 16 6 0 10 9 10 20 0 11 5 20 10 20 6 0 10 7 10 16 0
9 14 29 30 44 17 15 30 33 30 40 0 7 14 25 30 40 17 15 30 35 30 44 0 9 5 16
10 16 6 0 10 7 10 16 0 9 14 29 30 44 17 15 30 33 30 39 0 6 52 63 115 126
111 111 116 115 158 115 31 0 46 -5 57 -20 8 -11 20 -20 28 -20 18 0 42 -25
42 -44 0 -9 5 -16 10 -16 6 0 10 -9 10 -20 0 -11 5 -20 10 -20 6 0 10 -9 10
-20 0 -11 5 -20 10 -20 6 0 10 -9 10 -20 0 -11 5 -20 10 -20 6 0 10 -20 10
-45 0 -36 6 -52 27 -73 17 -17 28 -22 31 -14 6 19 56 14 72 -8 11 -15 26 -20
62 -20 26 0 48 5 48 10 0 6 17 10 38 10 26 0 42 -6 52 -20 10 -14 26 -20 50
-20 24 0 40 6 50 20 10 14 26 20 52 20 21 0 38 5 38 10 0 6 7 10 16 10 8 0 33
18 54 40 21 22 46 40 54 40 9 0 16 5 16 10 0 6 8 10 18 10 10 0 24 9 32 20 8
12 26 20 42 20 15 0 28 5 28 10 0 6 9 10 20 10 11 0 20 5 20 10 0 6 8 10 18
10 10 0 24 9 32 20 8 12 26 20 42 20 15 0 28 5 28 10 0 6 9 10 20 10 11 0 20
5 20 10 0 6 9 10 20 10 11 0 20 -4 20 -10 0 -5 16 -10 35 -10 37 0 85 -35 85
-62 0 -8 9 -20 20 -28 12 -8 20 -26 20 -42 0 -15 5 -28 10 -28 6 0 10 -9 10
-20 0 -11 5 -20 10 -20 6 0 10 -18 10 -40 0 -22 5 -40 10 -40 6 0 10 -13 10
-30 0 -16 5 -30 10 -30 6 0 10 -18 10 -40 0 -22 5 -40 10 -40 6 0 10 -18 10
-40 0 -22 5 -40 10 -40 6 0 10 -21 10 -46 0 -50 16 -74 50 -74 38 0 50 23 50
94 0 37 -4 66 -10 66 -5 0 -10 23 -10 50 0 28 -4 50 -10 50 -5 0 -10 18 -10
40 0 22 -4 40 -10 40 -5 0 -10 14 -10 30 0 17 -4 30 -10 30 -5 0 -10 14 -10
30 0 17 -4 30 -10 30 -5 0 -10 14 -10 30 0 17 -4 30 -10 30 -5 0 -10 9 -10 20
0 11 -4 20 -10 20 -5 0 -10 9 -10 20 0 11 -4 20 -10 20 -5 0 -10 7 -10 15 0
20 -85 105 -105 105 -8 0 -15 5 -15 10 0 6 -18 10 -40 10 -22 0 -40 5 -40 10
0 6 -18 10 -40 10 -22 0 -40 -4 -40 -10 0 -5 -9 -10 -20 -10 -11 0 -20 -4 -20
-10 0 -5 -9 -10 -20 -10 -11 0 -20 -4 -20 -10 0 -5 -9 -10 -20 -10 -11 0 -20
-4 -20 -10 0 -5 -9 -10 -20 -10 -11 0 -20 -4 -20 -10 0 -5 -9 -10 -20 -10 -11
0 -20 -4 -20 -10 0 -5 -9 -10 -20 -10 -11 0 -20 -4 -20 -10 0 -5 -9 -10 -20
-10 -11 0 -20 -4 -20 -10 0 -5 -8 -10 -18 -10 -10 0 -24 -9 -32 -20 -8 -11
-22 -20 -32 -20 -10 0 -18 -4 -18 -10 0 -5 -7 -10 -16 -10 -9 0 -29 -13 -44
-30 -15 -16 -34 -30 -42 -30 -7 0 -20 -9 -28 -20 -8 -11 -22 -20 -32 -20 -10
0 -18 -4 -18 -10 0 -5 -22 -10 -50 -10 -27 0 -50 5 -50 10 0 6 -35 10 -86 10
-98 0 -114 9 -114 64 0 20 -4 36 -10 36 -5 0 -10 14 -10 30 0 17 -4 30 -10 30
-5 0 -10 9 -10 20 0 11 -4 20 -10 20 -5 0 -10 7 -10 15 0 20 -125 145 -145
145 -8 0 -15 5 -15 10 0 6 -13 10 -28 10 -16 0 -34 8 -42 20 -24 34 -60 24
-110 -30z"/>
<path d="M1033 3285 c-25 -27 -15 -73 22 -110 19 -19 39 -35 46 -35 6 0 24
-13 39 -30 15 -16 34 -30 42 -30 7 0 20 -9 28 -20 8 -11 21 -20 30 -20 9 0 22
-9 30 -20 17 -23 55 -26 76 -6 16 17 19 66 4 66 -5 0 -10 7 -10 16 0 20 -24
44 -44 44 -9 0 -16 5 -16 10 0 6 -8 10 -18 10 -10 0 -24 9 -32 20 -8 11 -20
20 -28 20 -7 0 -35 23 -62 50 -50 52 -83 62 -107 35z"/>
<path d="M3980 3130 c0 -5 -9 -10 -20 -10 -11 0 -20 -4 -20 -10 0 -5 -9 -10
-20 -10 -11 0 -20 -4 -20 -10 0 -5 -9 -10 -20 -10 -11 0 -20 -4 -20 -10 0 -5
-9 -10 -20 -10 -11 0 -20 -4 -20 -10 0 -5 -13 -10 -30 -10 -16 0 -30 -4 -30
-10 0 -5 -13 -10 -30 -10 -16 0 -30 -4 -30 -10 0 -5 -7 -10 -16 -10 -22 0 -44
-25 -44 -50 0 -12 6 -28 14 -36 17 -16 106 -20 106 -4 0 6 14 10 30 10 17 0
30 5 30 10 0 6 14 10 30 10 17 0 30 5 30 10 0 6 9 10 20 10 11 0 20 5 20 10 0
6 9 10 20 10 11 0 20 5 20 10 0 6 9 10 20 10 11 0 20 5 20 10 0 6 7 10 15 10
23 0 65 46 65 70 0 12 -6 28 -14 36 -16 16 -86 19 -86 4z"/>
<path d="M2983 3015 c-27 -28 -32 -98 -9 -121 22 -21 79 -18 96 6 8 11 20 20
28 20 23 0 42 27 42 60 0 46 -20 60 -82 59 -43 0 -57 -5 -75 -24z"/>
<path d="M1793 2965 c-58 -61 -38 -105 47 -105 45 0 55 4 85 35 61 61 41 105
-47 104 -47 0 -57 -4 -85 -34z"/>
<path d="M973 2945 c-17 -19 -16 -53 1 -71 9 -8 34 -14 60 -14 25 0 46 -4 46
-10 0 -5 23 -10 50 -10 28 0 50 -4 50 -10 0 -5 8 -10 18 -10 10 0 24 -9 32
-20 17 -23 55 -26 76 -6 34 34 -3 126 -51 126 -8 0 -15 5 -15 10 0 6 -27 10
-60 10 -33 0 -60 4 -60 10 0 16 -133 12 -147 -5z"/>
<path d="M4000 2910 c0 -5 -9 -10 -20 -10 -11 0 -20 -4 -20 -10 0 -5 -9 -10
-20 -10 -11 0 -20 -4 -20 -10 0 -5 -9 -10 -20 -10 -11 0 -20 -4 -20 -10 0 -5
-13 -10 -30 -10 -16 0 -30 -4 -30 -10 0 -5 -12 -10 -26 -10 -47 0 -72 -53 -40
-86 17 -16 126 -20 126 -4 0 6 14 10 30 10 17 0 30 5 30 10 0 6 9 10 20 10 11
0 20 5 20 10 0 6 9 10 20 10 11 0 20 5 20 10 0 6 11 10 25 10 31 0 75 41 75
70 0 12 -6 28 -14 36 -17 16 -106 20 -106 4z"/>
<path d="M2900 2770 c0 -5 -9 -10 -20 -10 -11 0 -20 -4 -20 -10 0 -5 -9 -10
-20 -10 -11 0 -20 -4 -20 -10 0 -5 -8 -10 -18 -10 -10 0 -24 -9 -32 -20 -8
-11 -22 -20 -32 -20 -10 0 -18 -4 -18 -10 0 -5 -9 -10 -20 -10 -11 0 -20 -4
-20 -10 0 -5 -18 -10 -39 -10 -22 0 -42 -6 -45 -12 -5 -10 -7 -10 -12 0 -3 6
-19 12 -35 12 -16 0 -29 5 -29 10 0 6 -17 10 -38 10 -26 0 -42 -6 -52 -20 -8
-11 -22 -20 -32 -20 -10 0 -18 -4 -18 -10 0 -5 -13 -10 -30 -10 -16 0 -30 -4
-30 -10 0 -5 -22 -10 -49 -10 -30 0 -51 -5 -53 -12 -3 -9 -10 -7 -24 6 -13 14
-15 21 -6 24 17 5 15 50 -2 68 -23 22 -56 16 -86 -16 -15 -16 -33 -30 -40 -30
-37 0 -56 -95 -26 -126 18 -17 63 -18 69 -1 3 8 11 5 24 -10 17 -19 31 -23 77
-23 31 0 56 5 56 10 0 6 30 10 70 10 60 0 70 -2 70 -18 0 -10 9 -24 20 -32 11
-8 20 -20 20 -27 0 -8 25 -38 55 -68 45 -46 60 -55 90 -55 19 0 35 -4 35 -10
0 -6 26 -10 58 -10 46 0 60 4 72 20 8 11 25 20 37 20 14 0 41 18 68 45 36 36
45 51 45 80 0 31 3 35 25 35 14 0 37 -11 50 -25 29 -28 31 -35 10 -35 -9 0
-31 -16 -50 -35 -29 -28 -35 -42 -35 -76 0 -33 -6 -47 -30 -69 -16 -15 -30
-35 -30 -44 0 -9 -4 -16 -10 -16 -6 0 -10 -40 -10 -100 0 -60 4 -100 10 -100
6 0 10 -7 10 -15 0 -20 65 -85 85 -85 8 0 15 -4 15 -10 0 -5 9 -10 20 -10 11
0 20 -4 20 -10 0 -5 23 -10 50 -10 28 0 50 -4 50 -10 0 -5 18 -10 40 -10 22 0
40 5 40 10 0 6 9 10 20 10 11 0 20 5 20 10 0 6 11 10 25 10 19 0 49 -24 115
-90 49 -49 96 -90 105 -90 8 0 15 -4 15 -10 0 -5 9 -10 20 -10 16 0 20 -7 20
-30 0 -16 -4 -30 -10 -30 -5 0 -10 -9 -10 -20 0 -11 -4 -20 -10 -20 -5 0 -10
-13 -10 -30 0 -16 -4 -30 -10 -30 -5 0 -10 -17 -10 -38 0 -26 -6 -42 -20 -52
-11 -8 -20 -21 -20 -30 0 -9 -9 -22 -20 -30 -11 -8 -20 -22 -20 -32 0 -10 -4
-18 -10 -18 -5 0 -10 -8 -10 -18 0 -10 -9 -24 -20 -32 -11 -8 -20 -22 -20 -32
0 -10 -7 -18 -16 -18 -29 0 -44 27 -44 80 0 67 -14 80 -84 80 -31 0 -56 5 -56
10 0 6 -9 10 -20 10 -11 0 -20 5 -20 10 0 6 -30 10 -70 10 -40 0 -70 -4 -70
-10 0 -6 -33 -10 -80 -10 -47 0 -80 -4 -80 -10 0 -5 -22 -10 -50 -10 -27 0
-50 -4 -50 -10 0 -6 -33 -10 -80 -10 -47 0 -80 -4 -80 -10 0 -6 -47 -10 -120
-10 -73 0 -120 -4 -120 -10 0 -6 -75 -10 -206 -10 -226 0 -234 -2 -234 -60 0
-32 -19 -60 -40 -60 -17 0 -40 26 -40 44 0 9 -4 16 -10 16 -5 0 -10 9 -10 20
0 11 -4 20 -10 20 -5 0 -10 9 -10 20 0 11 -4 20 -10 20 -5 0 -10 14 -10 30 0
17 -4 30 -10 30 -5 0 -10 18 -10 40 0 22 -4 40 -10 40 -6 0 -10 47 -10 120 0
73 -4 120 -10 120 -6 0 -10 30 -10 70 0 40 -4 70 -10 70 -5 0 -10 9 -10 20 0
18 -7 20 -85 20 -78 0 -88 2 -110 25 -35 34 -35 96 0 130 23 24 28 25 169 25
132 0 146 2 155 19 6 10 8 21 5 24 -3 3 -1 14 6 24 9 15 10 15 4 -7 -6 -22 -5
-23 9 -11 9 7 14 18 10 24 -4 6 0 8 10 4 11 -4 14 -2 10 9 -3 9 -19 14 -44 14
-21 0 -39 5 -39 10 0 6 -13 10 -30 10 -16 0 -30 5 -30 10 0 6 -8 10 -18 10
-10 0 -24 9 -32 20 -8 11 -22 20 -32 20 -10 0 -18 5 -18 10 0 6 -9 10 -20 10
-13 0 -20 7 -20 18 0 10 -9 24 -20 32 -11 8 -20 22 -20 32 0 10 -4 18 -10 18
-5 0 -10 12 -10 26 0 47 -53 72 -86 40 -16 -17 -20 -126 -4 -126 6 0 10 -7 10
-16 0 -8 27 -42 60 -74 33 -32 60 -61 60 -64 0 -4 -13 -6 -30 -6 -16 0 -30 -4
-30 -10 0 -5 -13 -10 -30 -10 -16 0 -30 -4 -30 -10 0 -5 -7 -10 -15 -10 -25 0
-65 -46 -65 -75 0 -14 -4 -25 -10 -25 -5 0 -10 -22 -10 -50 0 -27 5 -50 10
-50 6 0 10 -7 10 -16 0 -20 24 -44 44 -44 9 0 16 -4 16 -10 0 -5 14 -10 30
-10 17 0 30 -4 30 -10 0 -5 21 -10 46 -10 63 0 74 -15 74 -94 0 -37 4 -66 10
-66 6 0 10 -47 10 -120 0 -73 4 -120 10 -120 6 0 10 -18 10 -40 0 -22 5 -40
10 -40 6 0 10 -9 10 -20 0 -11 5 -20 10 -20 6 0 10 -9 10 -20 0 -11 5 -20 10
-20 6 0 10 -12 10 -26 0 -16 12 -37 30 -54 17 -15 30 -33 30 -40 0 -16 26 -40
44 -40 9 0 16 -4 16 -10 0 -5 20 -10 45 -10 39 0 51 5 80 35 19 19 35 39 35
45 0 6 11 22 25 35 24 25 26 25 210 25 117 0 185 4 185 10 0 6 43 10 110 10
67 0 110 4 110 10 0 6 33 10 80 10 47 0 80 4 80 10 0 6 27 10 60 10 33 0 60 4
60 10 0 6 30 10 70 10 40 0 70 4 70 10 0 18 35 11 50 -10 12 -16 26 -20 72
-20 l58 0 0 -45 c0 -41 5 -50 45 -90 40 -40 49 -45 90 -45 25 0 45 5 45 10 0
6 7 10 15 10 20 0 65 45 65 65 0 8 5 15 10 15 6 0 10 8 10 18 0 10 9 24 20 32
11 8 20 21 20 30 0 9 9 22 20 30 11 8 20 22 20 32 0 10 5 18 10 18 6 0 10 9
10 20 0 11 5 20 10 20 6 0 10 14 10 30 0 17 5 30 10 30 6 0 10 9 10 20 0 11 5
20 10 20 6 0 10 14 10 30 0 17 5 30 10 30 6 0 10 9 10 20 0 11 5 20 10 20 6 0
10 14 10 30 0 17 5 30 10 30 6 0 10 7 10 16 0 18 23 44 40 44 16 0 60 47 60
65 0 8 5 15 10 15 6 0 10 23 10 50 0 28 5 50 10 50 6 0 10 23 10 50 0 28 -4
50 -10 50 -5 0 -10 23 -10 50 0 28 -4 50 -10 50 -5 0 -10 8 -10 18 0 10 -9 24
-20 32 -11 8 -20 21 -20 30 0 9 -9 22 -20 30 -11 8 -20 21 -20 29 0 7 -10 22
-21 32 l-22 19 32 29 c17 16 31 36 31 45 0 9 5 16 10 16 16 0 12 89 -4 106
-27 26 -86 9 -86 -26 0 -17 -26 -40 -44 -40 -9 0 -16 8 -16 20 0 11 -4 20 -10
20 -5 0 -10 9 -10 20 0 11 -4 20 -10 20 -5 0 -10 8 -10 18 0 10 -9 24 -20 32
-11 8 -20 20 -20 27 0 17 -86 103 -103 103 -7 0 -19 9 -27 20 -8 11 -21 20
-30 20 -9 0 -22 9 -30 20 -8 11 -22 20 -32 20 -10 0 -18 5 -18 10 0 6 -18 10
-40 10 -22 0 -40 5 -40 10 0 6 -18 10 -40 10 -22 0 -40 -4 -40 -10 0 -5 -17
-10 -38 -10 -26 0 -42 6 -52 20 -15 21 -70 28 -70 10z m260 -140 c0 -5 8 -10
18 -10 10 0 24 -9 32 -20 8 -11 21 -20 30 -20 9 0 22 -9 30 -20 8 -11 20 -20
28 -20 16 0 62 -45 62 -61 0 -6 14 -24 30 -39 17 -15 30 -35 30 -44 0 -9 5
-16 10 -16 6 0 10 -13 10 -30 0 -16 5 -30 10 -30 6 0 10 -9 10 -20 0 -11 5
-20 10 -20 6 0 10 -25 10 -56 0 -60 14 -84 50 -84 24 0 90 -62 90 -85 0 -8 5
-15 10 -15 6 0 10 -9 10 -20 0 -11 5 -20 10 -20 6 0 10 -33 10 -78 0 -66 -3
-80 -20 -92 -11 -8 -20 -25 -20 -38 0 -35 -23 -52 -70 -52 -36 0 -47 6 -97 57
-32 32 -52 58 -45 61 17 5 15 50 -2 68 -8 8 -25 14 -38 14 -13 0 -30 9 -38 20
-25 35 -90 18 -90 -24 0 -14 -16 -16 -100 -16 -60 0 -100 4 -100 10 0 6 -9 10
-20 10 -11 0 -20 5 -20 10 0 6 -7 10 -16 10 -20 0 -44 24 -44 44 0 9 -4 16
-10 16 -5 0 -10 21 -10 46 0 44 16 74 40 74 25 0 40 30 40 80 0 53 15 80 44
80 9 0 16 5 16 10 0 6 12 10 26 10 29 0 54 21 54 44 0 9 5 16 10 16 15 0 12
70 -4 86 -8 8 -22 14 -30 14 -9 0 -16 5 -16 10 0 6 -7 10 -16 10 -9 0 -29 14
-44 30 -15 17 -35 30 -44 30 -9 0 -16 5 -16 10 0 6 5 10 10 10 6 0 10 9 10 20
0 13 7 20 20 20 11 0 20 5 20 10 0 6 27 10 60 10 33 0 60 -4 60 -10z m-400
-100 c0 -16 -4 -30 -10 -30 -5 0 -10 -16 -10 -36 0 -38 -18 -64 -44 -64 -9 0
-16 -4 -16 -10 0 -5 -16 -10 -35 -10 -29 0 -44 9 -80 45 -25 24 -45 51 -45 60
0 8 -4 15 -10 15 -5 0 -10 9 -10 20 0 11 5 20 10 20 6 0 10 -4 10 -10 0 -6 30
-10 70 -10 40 0 70 4 70 10 0 6 18 10 40 10 22 0 40 5 40 10 0 6 5 10 10 10 6
0 10 -13 10 -30z"/>
<path d="M1801 2104 c-40 -13 -73 -48 -64 -69 3 -8 10 -12 15 -9 7 4 6 9 -1
13 -7 5 0 16 19 30 17 12 35 19 40 16 6 -3 10 -1 10 6 0 7 7 4 16 -7 13 -16
15 -16 10 -2 -3 10 0 20 6 24 7 5 8 2 3 -6 -5 -9 -4 -11 3 -6 18 11 14 25 -5
23 -10 -1 -33 -7 -52 -13z"/>
<path d="M1880 2110 c0 -6 -10 -21 -21 -33 -15 -16 -23 -18 -26 -9 -4 10 -8
10 -21 0 -13 -11 -14 -11 -8 1 6 9 5 12 -3 10 -25 -9 -15 -24 17 -27 21 -2 32
-8 29 -15 -3 -8 6 -13 24 -13 22 -1 29 3 29 16 0 10 6 21 13 24 8 4 7 5 -3 5
-37 -3 -42 1 -26 17 18 18 21 34 6 34 -5 0 -10 -5 -10 -10z m10 -62 c0 -4 -6
-8 -14 -8 -8 0 -17 4 -20 8 -2 4 4 8 15 8 10 0 19 -4 19 -8z"/>
<path d="M1900 2090 c0 -5 5 -10 11 -10 5 0 7 5 4 10 -3 6 -8 10 -11 10 -2 0
-4 -4 -4 -10z"/>
</g>
</svg>
